<?xml version="1.0" standalone="no"?>
<!DOCTYPE svg PUBLIC "-//W3C//DTD SVG 20010904//EN"
 "http://www.w3.org/TR/2001/REC-SVG-20010904/DTD/svg10.dtd">
<svg version="1.0" xmlns="http://www.w3.org/2000/svg"
 width="1013.000000pt" height="1013.000000pt" viewBox="0 0 1013.000000 1013.000000"
 preserveAspectRatio="xMidYMid meet">
<metadata>
Created by potrace 1.14, written by Peter Selinger 2001-2017
</metadata>
<g transform="translate(0.000000,1013.000000) scale(0.100000,-0.100000)"
fill="#000000" stroke="none">
<path d="M4768 10025 c-2 -1 -41 -6 -88 -10 -47 -3 -101 -8 -120 -10 -19 -2
-62 -6 -95 -9 -33 -4 -73 -8 -90 -11 -16 -3 -43 -7 -60 -10 -16 -3 -50 -8 -75
-11 -25 -3 -119 -21 -210 -40 -198 -42 -184 -39 -240 -54 -25 -7 -53 -14 -64
-16 -88 -17 -518 -163 -636 -216 -122 -56 -172 -76 -181 -74 -4 0 -17 -8 -29
-19 -12 -11 -23 -18 -24 -16 0 3 -36 -13 -79 -35 -43 -21 -95 -47 -115 -57
-20 -11 -68 -37 -107 -59 -38 -22 -90 -52 -115 -66 -25 -14 -56 -33 -69 -44
-13 -10 -29 -18 -37 -18 -7 0 -14 -3 -16 -7 -1 -5 -47 -37 -101 -72 -81 -53
-254 -176 -292 -208 -5 -5 -44 -35 -85 -68 -41 -33 -80 -64 -86 -70 -6 -5 -42
-37 -80 -70 -89 -78 -363 -351 -434 -434 -30 -35 -60 -69 -65 -75 -31 -33
-150 -183 -211 -266 -74 -100 -234 -336 -234 -345 0 -2 -16 -29 -35 -60 -20
-30 -35 -58 -34 -61 0 -4 -3 -10 -8 -13 -9 -6 -10 -9 -70 -121 -57 -106 -87
-164 -88 -170 0 -3 -19 -45 -43 -93 -23 -49 -42 -90 -42 -92 0 -3 -12 -30 -26
-62 -15 -31 -27 -62 -28 -67 -1 -6 -6 -18 -11 -26 -5 -8 -10 -19 -11 -25 -1
-5 -16 -48 -34 -95 -48 -127 -135 -409 -155 -500 -2 -8 -10 -44 -19 -80 -8
-36 -17 -76 -20 -90 -3 -14 -8 -36 -11 -50 -6 -27 -13 -66 -21 -115 -2 -16 -9
-55 -14 -85 -15 -93 -19 -123 -26 -195 -3 -38 -8 -73 -10 -76 -24 -42 -24
-869 1 -982 2 -12 7 -47 10 -77 6 -72 12 -117 30 -220 8 -47 17 -98 20 -115 4
-25 18 -92 40 -192 16 -73 65 -251 99 -360 36 -114 106 -310 136 -378 9 -22
30 -71 46 -110 52 -127 225 -463 295 -570 10 -16 22 -37 26 -45 12 -26 78
-125 86 -128 4 -2 7 -8 7 -13 0 -7 88 -138 117 -174 4 -5 40 -53 80 -105 40
-52 84 -108 98 -125 14 -16 33 -39 43 -51 140 -169 545 -574 573 -574 4 0 9
-3 11 -8 1 -4 28 -28 58 -52 30 -25 62 -52 70 -60 8 -8 23 -19 32 -25 9 -5 58
-42 110 -81 77 -59 276 -194 353 -241 94 -56 227 -132 253 -144 18 -7 32 -18
32 -22 0 -5 5 -5 10 -2 6 3 10 1 10 -5 0 -6 4 -9 9 -6 5 4 11 3 13 -2 4 -10
177 -94 333 -162 48 -21 101 -43 108 -45 4 -2 9 -4 12 -5 3 -1 8 -3 13 -4 4
-1 24 -10 44 -19 75 -32 431 -148 458 -149 3 0 16 -5 30 -10 49 -19 326 -83
465 -108 33 -5 71 -12 84 -15 13 -2 49 -7 80 -10 31 -4 63 -8 71 -10 8 -2 42
-7 75 -10 33 -4 76 -8 95 -11 226 -26 768 -26 1005 0 17 2 59 6 95 10 36 4 76
9 90 11 14 2 43 7 65 10 23 3 52 7 65 10 13 3 42 7 65 11 91 13 332 67 490
110 11 3 29 7 40 9 60 13 489 161 532 184 10 5 68 30 128 56 182 78 409 194
558 287 43 26 81 48 84 48 4 0 21 11 39 25 18 14 37 25 43 25 6 0 11 4 11 8 0
5 15 16 33 25 17 9 52 32 77 51 25 19 50 35 57 35 6 1 13 4 15 9 2 4 50 43
108 86 58 44 121 93 141 110 20 17 60 51 90 76 29 25 76 65 104 90 69 61 341
336 390 394 22 26 47 55 57 64 9 9 38 44 65 77 26 34 54 67 61 75 33 37 152
201 152 209 0 5 4 11 8 13 7 3 102 135 102 143 0 2 18 30 39 63 22 32 48 74
59 93 11 19 44 77 75 129 49 86 207 400 213 425 2 6 23 58 48 117 92 220 212
594 242 758 3 14 11 53 19 88 14 59 18 80 30 155 3 17 8 39 10 47 2 8 7 40 11
70 4 30 8 66 10 80 2 14 6 48 9 75 3 28 7 59 9 71 20 101 28 705 12 874 -5 47
-10 101 -11 121 -4 49 -15 151 -19 169 -1 8 -6 38 -10 65 -4 28 -15 88 -23
135 -23 128 -24 134 -43 215 -6 28 -13 57 -15 65 -24 110 -115 412 -136 452
-5 10 -9 25 -9 33 0 8 -4 23 -9 33 -5 9 -34 80 -64 157 -31 78 -77 186 -103
240 -26 55 -48 102 -49 105 -2 12 -99 192 -147 273 -15 26 -28 52 -28 57 0 6
-4 10 -10 10 -5 0 -10 5 -10 10 0 6 -27 51 -60 102 -33 50 -60 94 -60 98 0 3
-8 15 -18 26 -9 10 -32 43 -51 72 -18 28 -37 52 -42 52 -5 0 -9 6 -9 13 0 7
-12 27 -28 44 -15 18 -34 41 -42 53 -8 12 -23 32 -32 43 -10 12 -21 27 -26 32
-214 272 -493 553 -766 773 -50 41 -100 81 -111 91 -11 9 -42 32 -70 51 -27
19 -51 38 -53 43 -2 4 -10 7 -17 7 -7 0 -15 4 -17 9 -1 4 -61 46 -133 93 -172
112 -182 118 -235 147 -25 13 -48 29 -52 35 -4 6 -8 7 -8 3 0 -5 -13 1 -28 12
-44 31 -449 231 -468 231 -3 0 -20 6 -37 14 -18 7 -52 23 -77 33 -25 11 -85
35 -135 52 -49 18 -99 36 -110 41 -37 16 -323 100 -425 125 -63 15 -185 43
-215 49 -11 2 -31 7 -45 10 -14 3 -41 8 -60 11 -19 3 -44 7 -55 9 -11 2 -38 7
-60 10 -22 3 -49 8 -60 10 -11 2 -49 7 -85 11 -36 4 -67 8 -70 10 -3 2 -44 6
-91 9 -46 4 -96 9 -109 12 -25 6 -696 15 -702 9z"/>
</g>
</svg>
